<svg id="Frame" xmlns="http://www.w3.org/2000/svg" viewBox="0 0 480 320"><defs><style>.cls-1{fill:#202124;}</style></defs><title>ca-logo-rect</title><polygon class="cls-1" points="468 234 468 308 12 308 12 12 468 12 468 86 480 86 480 0 0 0 0 320 480 320 480 234 468 234"/><path class="cls-1" d="M90.65,81.08v16H80.4V88.71a26,26,0,0,0-7.19-1c-10.79,0-17,8-17,19.18,0,12.21,6.87,20.27,19.83,20.27,5.56,0,11.55-1.63,14.5-3.27l-.65,10.57a42.31,42.31,0,0,1-15.48,2.94C54.35,137.42,44,125.11,44,108.11c0-18.09,11.33-30,30.62-30C82.58,78.14,87.27,79.66,90.65,81.08Z"/><path class="cls-1" d="M141,79.34l-1.31,10.79a17,17,0,0,0-5.56-.87c-10,0-15.37,9.37-15.48,19.84l-.22,18.09h8.28v8.94H99.36v-8.94h6.87l.22-38.8H97.84V79.44H118v4.8a92.77,92.77,0,0,1-.65,10.9l.22.22c2.18-10.79,8.39-17,16.57-17A25,25,0,0,1,141,79.34Z"/><path class="cls-1" d="M191.67,100c0,16.13-.44,21.58-.44,27.14h7.63v8.94h-18a65.08,65.08,0,0,1,1-11.77h-.22c-3.16,8.83-9.37,13.08-18.85,13.08-11.77,0-18.09-7-18.09-16.24,0-9.48,5.78-16.35,24.19-17.33l11.88-.65V99.28c0-10.9-6.54-12.21-12.42-12.21A30.61,30.61,0,0,0,158,89v8.28H147.1V83.26a48.88,48.88,0,0,1,22.45-5.12C183.61,78.14,191.67,83.59,191.67,100ZM166,127.83c8.39,0,14.6-5.67,14.6-14.93v-1.74h-2.94c-13.4,0-20.71,2.4-20.71,9C156.91,124.45,160.18,127.83,166,127.83Z"/><path class="cls-1" d="M250,52.31l-.44,9.59c-1.74-.76-4.69-1.31-9-1.31-9,0-13.08,4.8-13.3,13.95l-.11,4.9h13.3v8.94h-13.3l-.22,38.8h8.72v8.94H207.8v-8.94h6.87l.22-38.8h-8.61V79.44h8.61l.22-7.52C215.54,58.08,224,51,239,51A48.28,48.28,0,0,1,250,52.31Z"/><path class="cls-1" d="M265.34,79.44h16.24v8.94H265.34l-.22,25.94c-.11,8.39,1,13.51,7.74,13.51a26.27,26.27,0,0,0,9.7-2.18l-.44,8.94a28,28,0,0,1-12.53,2.83c-12,0-16.78-4.8-16.67-17.55l.33-31.5h-8.61V79.44h8.61l.22-12.75,12.31-.87Z"/><path class="cls-1" d="M93.37,205.57c0,16.13-.44,21.58-.44,27.14h7.63v8.94h-18a65.08,65.08,0,0,1,1-11.77h-.22C80.18,238.7,74,243,64.49,243c-11.77,0-18.09-7-18.09-16.24,0-9.48,5.78-16.35,24.19-17.33l11.88-.65v-3.92c0-10.9-6.54-12.21-12.42-12.21a30.61,30.61,0,0,0-10.35,2v8.28H48.8V188.79a48.89,48.89,0,0,1,22.45-5.12C85.31,183.67,93.37,189.12,93.37,205.57ZM67.65,233.36c8.39,0,14.6-5.67,14.6-14.93v-1.74H79.31c-13.4,0-20.71,2.4-20.71,9C58.6,230,61.87,233.36,67.65,233.36Z"/><path class="cls-1" d="M168.78,210.59c0,19.51-11.88,32.37-30.52,32.37A31.52,31.52,0,0,1,127,241.1l-.22,19h9V269H108.73v-8.94h6.32l.44-66.15h-8V185H127A60,60,0,0,1,126,196.53h.22c2.94-7.74,9.15-12.86,18.85-12.86C159.19,183.67,168.78,194.35,168.78,210.59ZM127.48,231c2.62,1.63,6.43,2.4,10.79,2.4,10.79,0,17.66-9.15,17.66-20.92,0-11.44-5.23-18.53-13.84-18.53-9.7,0-14.6,8.07-14.6,20.71Z"/><path class="cls-1" d="M235.44,210.59c0,19.51-11.88,32.37-30.52,32.37a31.52,31.52,0,0,1-11.22-1.85l-.22,19h9V269H175.39v-8.94h6.32l.44-66.15h-8V185H193.7a60,60,0,0,1-1.09,11.55h.22c2.94-7.74,9.15-12.86,18.85-12.86C225.85,183.67,235.44,194.35,235.44,210.59ZM194.14,231c2.62,1.63,6.43,2.4,10.79,2.4,10.79,0,17.66-9.15,17.66-20.92,0-11.44-5.23-18.53-13.84-18.53-9.7,0-14.6,8.07-14.6,20.71Z"/><polygon class="cls-1" points="263.32 157.84 262.88 232.71 270.51 232.71 270.51 241.65 243.81 241.65 243.81 232.71 250.68 232.71 251.11 166.77 241.19 166.77 241.19 157.84 263.32 157.84"/><polygon class="cls-1" points="300.43 184.97 300.21 232.71 307.84 232.71 307.84 241.65 280.59 241.65 280.59 232.71 288 232.71 288.22 193.91 279.61 193.91 279.61 184.97 300.43 184.97"/><path class="cls-1" d="M302.72,164.92a8.39,8.39,0,1,1-8.39-8.39A8.33,8.33,0,0,1,302.72,164.92Z"/><path class="cls-1" d="M368,214.18v1.09H327.45c0,10.46,7.63,18.09,19.51,18.09A40.65,40.65,0,0,0,365.05,229l-.65,10A52.56,52.56,0,0,1,344.46,243c-18.31,0-29.86-11.44-29.86-29.43s10.68-29.86,27.79-29.86C358,183.67,368,194.13,368,214.18ZM355.14,207v-.54c0-7.74-4.9-13.84-13.51-13.84-8.28,0-13.62,5.34-14.17,14.39Z"/><path class="cls-1" d="M428.81,157.84l-.44,74.87H436v8.94H416.82a65.2,65.2,0,0,1,1.09-11.55h-.22c-2.94,7.74-9.26,12.86-18.85,12.86-13.95,0-23.65-10.46-23.65-26.92,0-19.51,11.88-32.37,30.41-32.37A52.81,52.81,0,0,1,416.82,185l.22-18.2H406.68v-8.94Zm-27,74.87c10,0,14.6-8.5,14.6-20.71V195.65c-2.62-1.53-6.1-2.4-10.79-2.4-10.46,0-17.55,8.83-17.55,20.92C388,225.41,393.06,232.71,401.78,232.71Z"/></svg>