<svg id="Frame" xmlns="http://www.w3.org/2000/svg" viewBox="0 0 480 480"><defs><style>.cls-1{fill:#202124;}</style></defs><title>ca-logo-square</title><polygon class="cls-1" points="468 328 468 468 12 468 12 12 468 12 468 152 480 152 480 0 0 0 0 480 480 480 480 328 468 328"/><path class="cls-1" d="M90.65,251.2v16H80.4v-8.39a26,26,0,0,0-7.19-1c-10.79,0-17,8-17,19.18,0,12.21,6.87,20.27,19.83,20.27,5.56,0,11.55-1.63,14.5-3.27l-.65,10.57a42.31,42.31,0,0,1-15.48,2.94C54.35,307.55,44,295.23,44,278.23c0-18.09,11.33-30,30.62-30C82.58,248.26,87.27,249.79,90.65,251.2Z"/><path class="cls-1" d="M141,249.46l-1.31,10.79a17,17,0,0,0-5.56-.87c-10,0-15.37,9.37-15.48,19.84l-.22,18.09h8.28v8.94H99.36V297.3h6.87l.22-38.8H97.84v-8.94H118v4.8a92.77,92.77,0,0,1-.65,10.9l.22.22c2.18-10.79,8.39-17,16.57-17A25,25,0,0,1,141,249.46Z"/><path class="cls-1" d="M191.67,270.17c0,16.13-.44,21.58-.44,27.14h7.63v8.94h-18a65.08,65.08,0,0,1,1-11.77h-.22c-3.16,8.83-9.37,13.08-18.85,13.08-11.77,0-18.09-7-18.09-16.24,0-9.48,5.78-16.35,24.19-17.33l11.88-.65V269.4c0-10.9-6.54-12.21-12.42-12.21a30.61,30.61,0,0,0-10.35,2v8.28H147.1V253.38a48.88,48.88,0,0,1,22.45-5.12C183.61,248.26,191.67,253.71,191.67,270.17ZM166,298c8.39,0,14.6-5.67,14.6-14.93v-1.74h-2.94c-13.4,0-20.71,2.4-20.71,9C156.91,294.58,160.18,298,166,298Z"/><path class="cls-1" d="M250,222.43l-.44,9.59c-1.74-.76-4.69-1.31-9-1.31-9,0-13.08,4.8-13.3,13.95l-.11,4.9h13.3v8.94h-13.3l-.22,38.8h8.72v8.94H207.8V297.3h6.87l.22-38.8h-8.61v-8.94h8.61l.22-7.52c.44-13.84,8.94-20.92,23.87-20.92A48.28,48.28,0,0,1,250,222.43Z"/><path class="cls-1" d="M265.34,249.57h16.24v8.94H265.34l-.22,25.94c-.11,8.39,1,13.51,7.74,13.51a26.27,26.27,0,0,0,9.7-2.18l-.44,8.94a28,28,0,0,1-12.53,2.83c-12,0-16.78-4.8-16.67-17.55l.33-31.5h-8.61v-8.94h8.61l.22-12.75,12.31-.87Z"/><path class="cls-1" d="M93.37,375.7c0,16.13-.44,21.58-.44,27.14h7.63v8.94h-18a65.08,65.08,0,0,1,1-11.77h-.22c-3.16,8.83-9.37,13.08-18.85,13.08-11.77,0-18.09-7-18.09-16.24,0-9.48,5.78-16.35,24.19-17.33l11.88-.65v-3.92c0-10.9-6.54-12.21-12.42-12.21a30.61,30.61,0,0,0-10.35,2V373H48.8V358.91a48.89,48.89,0,0,1,22.45-5.12C85.31,353.79,93.37,359.24,93.37,375.7ZM67.65,403.49c8.39,0,14.6-5.67,14.6-14.93v-1.74H79.31c-13.4,0-20.71,2.4-20.71,9C58.6,400.11,61.87,403.49,67.65,403.49Z"/><path class="cls-1" d="M168.78,380.71c0,19.51-11.88,32.37-30.52,32.37A31.52,31.52,0,0,1,127,411.23l-.22,19h9v8.94H108.73v-8.94h6.32l.44-66.15h-8V355.1H127A60,60,0,0,1,126,366.65h.22c2.94-7.74,9.15-12.86,18.85-12.86C159.19,353.79,168.78,364.47,168.78,380.71Zm-41.31,20.38c2.62,1.63,6.43,2.4,10.79,2.4,10.79,0,17.66-9.15,17.66-20.92,0-11.44-5.23-18.53-13.84-18.53-9.7,0-14.6,8.07-14.6,20.71Z"/><path class="cls-1" d="M235.44,380.71c0,19.51-11.88,32.37-30.52,32.37a31.52,31.52,0,0,1-11.22-1.85l-.22,19h9v8.94H175.39v-8.94h6.32l.44-66.15h-8V355.1H193.7a60,60,0,0,1-1.09,11.55h.22c2.94-7.74,9.15-12.86,18.85-12.86C225.85,353.79,235.44,364.47,235.44,380.71Zm-41.31,20.38c2.62,1.63,6.43,2.4,10.79,2.4,10.79,0,17.66-9.15,17.66-20.92,0-11.44-5.23-18.53-13.84-18.53-9.7,0-14.6,8.07-14.6,20.71Z"/><polygon class="cls-1" points="263.32 327.96 262.88 402.83 270.51 402.83 270.51 411.77 243.81 411.77 243.81 402.83 250.68 402.83 251.11 336.9 241.19 336.9 241.19 327.96 263.32 327.96"/><polygon class="cls-1" points="300.43 355.1 300.21 402.83 307.84 402.83 307.84 411.77 280.59 411.77 280.59 402.83 288 402.83 288.22 364.04 279.61 364.04 279.61 355.1 300.43 355.1"/><path class="cls-1" d="M302.72,335a8.39,8.39,0,1,1-8.39-8.39A8.33,8.33,0,0,1,302.72,335Z"/><path class="cls-1" d="M368,384.31v1.09H327.45c0,10.46,7.63,18.09,19.51,18.09a40.65,40.65,0,0,0,18.09-4.36l-.65,10a52.56,52.56,0,0,1-19.94,3.92c-18.31,0-29.86-11.44-29.86-29.43s10.68-29.86,27.79-29.86C358,353.79,368,364.25,368,384.31Zm-12.86-7.19v-.54c0-7.74-4.9-13.84-13.51-13.84-8.28,0-13.62,5.34-14.17,14.39Z"/><path class="cls-1" d="M428.81,328l-.44,74.87H436v8.94H416.82a65.2,65.2,0,0,1,1.09-11.55h-.22c-2.94,7.74-9.26,12.86-18.85,12.86-13.95,0-23.65-10.46-23.65-26.92,0-19.51,11.88-32.37,30.41-32.37a52.81,52.81,0,0,1,11.23,1.31l.22-18.2H406.68V328Zm-27,74.87c10,0,14.6-8.5,14.6-20.71V365.78c-2.62-1.53-6.1-2.4-10.79-2.4-10.46,0-17.55,8.83-17.55,20.92C388,395.53,393.06,402.83,401.78,402.83Z"/></svg>