<svg id="Final_-_New" data-name="Final - New" xmlns="http://www.w3.org/2000/svg" viewBox="0 0 200 200"><defs><style>.cls-1{fill:#0c6;}.cls-2{fill:#202124;}.cls-3{fill:#aeeaac;}</style></defs><title>Development</title><g id="Computer"><rect class="cls-1" x="2" y="112" width="136" height="86" rx="6" ry="6"/><path class="cls-2" d="M132 114a4 4 0 0 1 4 4v74a4 4 0 0 1-4 4H8a4 4 0 0 1-4-4v-74a4 4 0 0 1 4-4h124m0-4H8a8 8 0 0 0-8 8v74a8 8 0 0 0 8 8h124a8 8 0 0 0 8-8v-74a8 8 0 0 0-8-8z"/><rect class="cls-3" x="2" y="101" width="136" height="88" rx="6" ry="6"/><path class="cls-2" d="M132 103a4 4 0 0 1 4 4v76a4 4 0 0 1-4 4H8a4 4 0 0 1-4-4v-76a4 4 0 0 1 4-4h124m0-4H8a8 8 0 0 0-8 8v76a8 8 0 0 0 8 8h124a8 8 0 0 0 8-8v-76a8 8 0 0 0-8-8z"/><rect class="cls-3" x="50" y="161" width="40" height="20" rx="4" ry="4"/><path class="cls-2" d="M86 183H54a6 6 0 0 1-6-6v-12a6 6 0 0 1 6-6h32a6 6 0 0 1 6 6v12a6 6 0 0 1-6 6zm-32-20a2 2 0 0 0-2 2v12a2 2 0 0 0 2 2h32a2 2 0 0 0 2-2v-12a2 2 0 0 0-2-2z"/><rect class="cls-3" x="17" y="112" width="106" height="40" rx="4" ry="4"/><path class="cls-2" d="M119 154H21a6 6 0 0 1-6-6v-32a6 6 0 0 1 6-6h98a6 6 0 0 1 6 6v32a6 6 0 0 1-6 6zm-98-40a2 2 0 0 0-2 2v32a2 2 0 0 0 2 2h98a2 2 0 0 0 2-2v-32a2 2 0 0 0-2-2z"/><rect class="cls-3" x="2" y="2" width="136" height="98" rx="6" ry="6"/><path class="cls-2" d="M132 4a4 4 0 0 1 4 4v86a4 4 0 0 1-4 4H8a4 4 0 0 1-4-4V8a4 4 0 0 1 4-4h124m0-4H8a8 8 0 0 0-8 8v86a8 8 0 0 0 8 8h124a8 8 0 0 0 8-8V8a8 8 0 0 0-8-8z"/><rect class="cls-1" x="10" y="10" width="120" height="78" rx="2" ry="2"/><path class="cls-2" d="M128 90H12a4 4 0 0 1-4-4V12a4 4 0 0 1 4-4h116a4 4 0 0 1 4 4v74a4 4 0 0 1-4 4zM10 86zm2 0h116V12H12z"/><path class="cls-3" d="M20 97h100v8H20z"/><path class="cls-2" d="M120 107H20a2 2 0 0 1-2-2v-8a2 2 0 0 1 2-2h100a2 2 0 0 1 2 2v8a2 2 0 0 1-2 2zm-98-4h96v-4H22zM10 23h120v4H10z"/><circle class="cls-2" cx="18" cy="18" r="3"/><circle class="cls-2" cx="26" cy="18" r="3"/><circle class="cls-2" cx="34" cy="18" r="3"/><rect class="cls-2" x="101" y="119" width="15" height="4" rx="2" ry="2"/><rect class="cls-2" x="24" y="126" width="15" height="4" rx="2" ry="2"/><rect class="cls-2" x="24" y="133" width="19" height="4" rx="2" ry="2"/><rect class="cls-2" x="101" y="133" width="15" height="4" rx="2" ry="2"/><rect class="cls-2" x="35" y="119" width="8" height="4" rx="2" ry="2"/><rect class="cls-2" x="24" y="119" width="8" height="4" rx="2" ry="2"/><rect class="cls-2" x="46" y="119" width="8" height="4" rx="2" ry="2"/><rect class="cls-2" x="57" y="119" width="8" height="4" rx="2" ry="2"/><rect class="cls-2" x="68" y="119" width="8" height="4" rx="2" ry="2"/><rect class="cls-2" x="79" y="119" width="8" height="4" rx="2" ry="2"/><rect class="cls-2" x="90" y="119" width="8" height="4" rx="2" ry="2"/><rect class="cls-2" x="53" y="126" width="8" height="4" rx="2" ry="2"/><rect class="cls-2" x="42" y="126" width="8" height="4" rx="2" ry="2"/><rect class="cls-2" x="46" y="133" width="8" height="4" rx="2" ry="2"/><rect class="cls-2" x="24" y="140" width="8" height="4" rx="2" ry="2"/><rect class="cls-2" x="35" y="140" width="8" height="4" rx="2" ry="2"/><rect class="cls-2" x="46" y="140" width="8" height="4" rx="2" ry="2"/><rect class="cls-2" x="101" y="140" width="4" height="4" rx="2" ry="2"/><rect class="cls-2" x="90" y="140" width="8" height="4" rx="2" ry="2"/><rect class="cls-2" x="108" y="140" width="8" height="4" rx="2" ry="2"/><rect class="cls-2" x="64" y="126" width="8" height="4" rx="2" ry="2"/><rect class="cls-2" x="75" y="126" width="8" height="4" rx="2" ry="2"/><rect class="cls-2" x="86" y="126" width="8" height="4" rx="2" ry="2"/><rect class="cls-2" x="57" y="133" width="8" height="4" rx="2" ry="2"/><rect class="cls-2" x="68" y="133" width="8" height="4" rx="2" ry="2"/><rect class="cls-2" x="57" y="140" width="31" height="4" rx="2" ry="2"/><rect class="cls-2" x="79" y="133" width="8" height="4" rx="2" ry="2"/><rect class="cls-2" x="90" y="133" width="8" height="4" rx="2" ry="2"/><rect class="cls-2" x="97" y="126" width="8" height="4" rx="2" ry="2"/><rect class="cls-2" x="108" y="126" width="8" height="4" rx="2" ry="2"/></g><g id="Notebook"><rect class="cls-1" x="148" y="89" width="50" height="61" rx="1" ry="1"/><path class="cls-2" d="M197 152h-48a3 3 0 0 1-3-3V90a3 3 0 0 1 3-3h48a3 3 0 0 1 3 3v59a3 3 0 0 1-3 3zm-47-4h46V91h-46z"/><rect class="cls-3" x="148" y="80" width="50" height="58" rx="1" ry="1"/><path class="cls-2" d="M197 140h-48a3 3 0 0 1-3-3V81a3 3 0 0 1 3-3h48a3 3 0 0 1 3 3v56a3 3 0 0 1-3 3zm-47-4h46V82h-46z"/><rect class="cls-2" x="143" y="87" width="10" height="4" rx="2" ry="2"/><rect class="cls-2" x="143" y="97" width="10" height="4" rx="2" ry="2"/><rect class="cls-2" x="143" y="107" width="10" height="4" rx="2" ry="2"/><rect class="cls-2" x="143" y="117" width="10" height="4" rx="2" ry="2"/><rect class="cls-2" x="143" y="127" width="10" height="4" rx="2" ry="2"/><rect class="cls-2" x="168" y="89" width="24" height="4" rx="2" ry="2"/><rect class="cls-2" x="168" y="100" width="20" height="4" rx="2" ry="2"/><rect class="cls-2" x="168" y="111" width="21" height="4" rx="2" ry="2"/><path class="cls-2" d="M160 95a2 2 0 0 1-1.11-.34l-3-2a2 2 0 1 1 2.22-3.33l1.47 1 2.85-3.57a2 2 0 1 1 3.12 2.5l-4 5A2 2 0 0 1 160 95zM160 106a2 2 0 0 1-1.11-.34l-3-2a2 2 0 0 1 2.22-3.33l1.47 1 2.85-3.57a2 2 0 1 1 3.12 2.5l-4 5a2 2 0 0 1-1.55.74zM160 118a2 2 0 0 1-1.11-.34l-3-2a2 2 0 0 1 2.22-3.33l1.47 1 2.85-3.57a2 2 0 0 1 3.12 2.5l-4 5a2 2 0 0 1-1.55.74zM196 146h-45a2 2 0 0 1 0-4h45a2 2 0 0 1 0 4z"/></g><g id="Coffee-cup"><path class="cls-3" d="M187.09 29a3 3 0 0 1 3 2.91c.1 3.36.28 9.13.46 14.65a14 14 0 0 1-14 14.45H166a14 14 0 0 1-14-14V32a3 3 0 0 1 3-3z"/><path class="cls-2" d="M176.55 63H166a16 16 0 0 1-16-16V32a5 5 0 0 1 5-5h32.09a5 5 0 0 1 5 4.84l.46 14.65a16 16 0 0 1-16 16.51zM155 31a1 1 0 0 0-1 1v15a12 12 0 0 0 12 12h10.55a12 12 0 0 0 12-12.38L188.09 32a1 1 0 0 0-1-1z"/><path class="cls-2" d="M184 38a1 1 0 0 1 1 1v9a8 8 0 0 1-8 8h-11a9 9 0 0 1-9-9v-7a2 2 0 0 1 2-2zM147 62h48a1 1 0 0 1 1 1v1a4 4 0 0 1-4 4h-42a4 4 0 0 1-4-4v-1a1 1 0 0 1 1-1z"/><path class="cls-3" d="M168 52h-2a5 5 0 0 1-5-5v-2a2 2 0 0 1 4 0v2a1 1 0 0 0 1 1h2a2 2 0 0 1 0 4z"/><path class="cls-2" d="M192 50a2 2 0 0 1 0-4 4 4 0 0 0 0-8 2 2 0 0 1 0-4 8 8 0 0 1 0 16z"/></g><g id="Pen-hat"><path class="cls-2" d="M150 192v6a2 2 0 0 0 2 2h25a2 2 0 0 0 0-4h-22v-4z"/><path class="cls-3" d="M145 186a6 6 0 0 1 6-6h21v12h-21a6 6 0 0 1-6-6z"/><path class="cls-2" d="M172 194h-21a8 8 0 0 1 0-16h21a2 2 0 0 1 2 2v12a2 2 0 0 1-2 2zm-21-12a4 4 0 0 0 0 8h19v-8z"/></g><g id="Pen"><path class="cls-3" d="M172.65 119.72a1 1 0 0 0-1.87.5l.08 12 1.21 4.51 7.73-2.07-1.21-4.51z"/><path class="cls-2" d="M172.07 138.74a2 2 0 0 1-1.93-1.48l-1.21-4.51a2 2 0 0 1-.07-.5l-.08-12a3 3 0 0 1 5.61-1.5l5.94 10.44a2 2 0 0 1 .19.47l1.21 4.51a2 2 0 0 1-1.41 2.45l-7.73 2.07a2 2 0 0 1-.52.05zm.79-6.78l.63 2.33 3.86-1-.62-2.33-3.92-6.96zm-1.95-11.25z"/><path class="cls-3" d="M172.176 134.174l7.76-2.08 12.48 46.56-7.76 2.08z"/><path class="cls-2" d="M183.72 182.21a2 2 0 0 1-1.93-1.48l-12.42-46.36a2 2 0 0 1 1.41-2.45l7.73-2.07a2 2 0 0 1 2.45 1.41l12.42 46.36a2 2 0 0 1-1.41 2.45l-7.73 2.07a2 2 0 0 1-.52.07zm-10-47l11.39 42.5 3.86-1-11.39-42.5z"/><path class="cls-2" d="M171.524 134.664l7.727-2.07 6.25 23.327-7.726 2.07zM184.948 181.68l7.76-2.08 1.3 4.85-7.76 2.08z"/><path class="cls-2" d="M185.27 188a2 2 0 0 1-1.93-1.48l-1.34-4.83a2 2 0 0 1 1.41-2.45l7.73-2.07a2 2 0 0 1 2.45 1.41l1.29 4.83a2 2 0 0 1-1.41 2.45l-7.73 2.07a2 2 0 0 1-.47.07zm1.16-5.42l.26 1 3.86-1-.26-1z"/></g><g id="Codelines"><rect class="cls-2" x="15" y="32" width="36" height="4" rx="2" ry="2"/><rect class="cls-2" x="15" y="41" width="71" height="4" rx="2" ry="2"/><rect class="cls-2" x="15" y="50" width="63" height="4" rx="2" ry="2"/><rect class="cls-2" x="15" y="59" width="41" height="4" rx="2" ry="2"/><rect class="cls-2" x="15" y="68" width="54" height="4" rx="2" ry="2"/><rect class="cls-2" x="15" y="77" width="30" height="4" rx="2" ry="2"/><rect class="cls-2" x="98" y="32" width="18" height="4" rx="2" ry="2"/><rect class="cls-2" x="98" y="41" width="15" height="4" rx="2" ry="2"/><rect class="cls-2" x="98" y="50" width="8" height="4" rx="2" ry="2"/><rect class="cls-2" x="98" y="59" width="12" height="4" rx="2" ry="2"/><rect class="cls-2" x="98" y="68" width="17" height="4" rx="2" ry="2"/><rect class="cls-2" x="98" y="77" width="13" height="4" rx="2" ry="2"/></g></svg>
