<svg id="Final_-_New" data-name="Final - New" xmlns="http://www.w3.org/2000/svg" viewBox="0 0 200 200"><defs><style>.cls-1{fill:#0c6;}.cls-2{fill:#202124;}.cls-3{fill:#aeeaac;}.cls-4{fill:#fff;}.cls-5{fill:#313233;}</style></defs><title>Planning</title><g id="Notebook"><path class="cls-1" d="M198 135a1 1 0 0 0-1-1h-87c-6 0-9.11 1.55-9.11 1.55a2.26 2.26 0 0 1-1.79 0S96 134 90 134H3a1 1 0 0 0-1 1v21a1 1 0 0 0 1 1h87c6 0 9.11 1.55 9.11 1.55a2.26 2.26 0 0 0 1.79 0S104 157 110 157h87a1 1 0 0 0 1-1z"/><path class="cls-2" d="M100 160.74a4.07 4.07 0 0 1-1.79-.4A20.79 20.79 0 0 0 90 159H3a3 3 0 0 1-3-3v-21a3 3 0 0 1 3-3h87c6.4 0 9.86 1.69 10 1.76h.08S103.6 132 110 132h87a3 3 0 0 1 3 3v21a3 3 0 0 1-3 3h-87a20.78 20.78 0 0 0-8.22 1.35 4 4 0 0 1-1.78.39zM4 155h86c6.4 0 9.86 1.69 10 1.76h.08S103.6 155 110 155h86v-19h-86a20.78 20.78 0 0 0-8.22 1.35 4.24 4.24 0 0 1-3.56 0A20.79 20.79 0 0 0 90 136H4z"/><path class="cls-3" d="M110 19c-6 0-9.11 1.55-9.11 1.55a2.26 2.26 0 0 1-1.79 0S96 19 90 19H3a1 1 0 0 0-1 1v115a1 1 0 0 0 1 1h87c6 0 9.11 1.55 9.11 1.55a2.26 2.26 0 0 0 1.79 0S104 136 110 136h87a1 1 0 0 0 1-1V20a1 1 0 0 0-1-1z"/><path class="cls-2" d="M100 139.74a4.07 4.07 0 0 1-1.79-.4A20.79 20.79 0 0 0 90 138H3a3 3 0 0 1-3-3V20a3 3 0 0 1 3-3h87c6.4 0 9.86 1.69 10 1.76h.08S103.6 17 110 17h87a3 3 0 0 1 3 3v115a3 3 0 0 1-3 3h-87a20.78 20.78 0 0 0-8.22 1.35 4 4 0 0 1-1.78.39zM4 134h86c6.4 0 9.86 1.69 10 1.76h.08S103.6 134 110 134h86V21h-86a20.78 20.78 0 0 0-8.22 1.35 4.24 4.24 0 0 1-3.56 0A20.79 20.79 0 0 0 90 21H4zM197 21z"/><path class="cls-2" d="M99.11 39.79A22.66 22.66 0 0 0 90 38H2v-4h88a26.22 26.22 0 0 1 10.89 2.21zM99.11 64.79A22.66 22.66 0 0 0 90 63H2v-4h88a26.22 26.22 0 0 1 10.89 2.21zM99.11 89.79A22.66 22.66 0 0 0 90 88H2v-4h88a26.22 26.22 0 0 1 10.89 2.21zM99.11 114.79A22.66 22.66 0 0 0 90 113H2v-4h88a26.22 26.22 0 0 1 10.89 2.21z"/><path class="cls-2" d="M23 36h4v99h-4zM48 36h4v99h-4zM73 36h4v99h-4zM100 160a2 2 0 0 1-2-2V22a2 2 0 0 1 4 0v136a2 2 0 0 1-2 2z"/><path class="cls-2" d="M100 146.74a4.07 4.07 0 0 1-1.79-.4A20.79 20.79 0 0 0 90 145H2a2 2 0 0 1 0-4h88c6.4 0 9.86 1.69 10 1.76h.08S103.6 141 110 141h88a2 2 0 0 1 0 4h-88a20.78 20.78 0 0 0-8.22 1.35 4 4 0 0 1-1.78.39zM100 153.74a4.07 4.07 0 0 1-1.79-.4A20.79 20.79 0 0 0 90 152H2a2 2 0 0 1 0-4h88c6.4 0 9.86 1.69 10 1.76h.08S103.6 148 110 148h88a2 2 0 0 1 0 4h-88a20.78 20.78 0 0 0-8.22 1.35 4 4 0 0 1-1.78.39z"/><circle class="cls-2" cx="9" cy="43" r="2"/><path class="cls-2" d="M9 46a3 3 0 1 1 3-3 3 3 0 0 1-3 3zm0-4a1 1 0 1 0 1 1 1 1 0 0 0-1-1z"/><circle class="cls-2" cx="9" cy="68" r="2"/><path class="cls-2" d="M9 71a3 3 0 1 1 3-3 3 3 0 0 1-3 3zm0-4a1 1 0 1 0 1 1 1 1 0 0 0-1-1z"/><circle class="cls-2" cx="9" cy="93" r="2"/><path class="cls-2" d="M9 96a3 3 0 1 1 3-3 3 3 0 0 1-3 3zm0-4a1 1 0 1 0 1 1 1 1 0 0 0-1-1z"/><circle class="cls-2" cx="9" cy="118" r="2"/><path class="cls-2" d="M9 121a3 3 0 1 1 3-3 3 3 0 0 1-3 3zm0-4a1 1 0 1 0 1 1 1 1 0 0 0-1-1z"/><rect class="cls-2" x="7" y="25" width="28" height="4" rx="2" ry="2"/><rect class="cls-2" x="29" y="42" width="16" height="4" rx="2" ry="2"/><rect class="cls-2" x="29" y="49" width="12" height="4" rx="2" ry="2"/><rect class="cls-2" x="29" y="91" width="12" height="4" rx="2" ry="2"/><rect class="cls-2" x="29" y="117" width="12" height="4" rx="2" ry="2"/><rect class="cls-2" x="79" y="42" width="16" height="4" rx="2" ry="2"/><rect class="cls-2" x="54" y="67" width="16" height="4" rx="2" ry="2"/><rect class="cls-2" x="79" y="49" width="12" height="4" rx="2" ry="2"/><rect class="cls-2" x="54" y="91" width="16" height="4" rx="2" ry="2"/><rect class="cls-2" x="54" y="98" width="12" height="4" rx="2" ry="2"/><path class="cls-4" d="M67 125H54v-2h13z"/><path class="cls-5" d="M53 122h15v4H53z"/><path class="cls-1" d="M27 2h8a2 2 0 0 1 2 2v15H25V4a2 2 0 0 1 2-2z"/><path class="cls-2" d="M37 21H25a2 2 0 0 1-2-2V4a4 4 0 0 1 4-4h8a4 4 0 0 1 4 4v15a2 2 0 0 1-2 2zm-10-4h8V4h-8z"/><path class="cls-1" d="M13 143h12v18a2 2 0 0 1-2 2h-8a2 2 0 0 1-2-2v-18z"/><path class="cls-2" d="M23 165h-8a4 4 0 0 1-4-4v-18a2 2 0 0 1 2-2h12a2 2 0 0 1 2 2v18a4 4 0 0 1-4 4zm-8-20v16h8v-16z"/><path class="cls-1" d="M65 5h8a2 2 0 0 1 2 2v12H63V7a2 2 0 0 1 2-2z"/><path class="cls-2" d="M75 21H63a2 2 0 0 1-2-2V7a4 4 0 0 1 4-4h8a4 4 0 0 1 4 4v12a2 2 0 0 1-2 2zm-10-4h8V7h-8z"/><rect class="cls-1" x="143" y="5" width="12" height="22" rx="2" ry="2"/><path class="cls-2" d="M153 29h-8a4 4 0 0 1-4-4V7a4 4 0 0 1 4-4h8a4 4 0 0 1 4 4v18a4 4 0 0 1-4 4zm-8-22v18h8V7z"/></g><g id="Notes"><path class="cls-3" d="M30.99 166.776l31.113-31.113 31.112 31.113-31.112 31.112z"/><path class="cls-2" d="M62.11 199.89a2 2 0 0 1-1.41-.59l-31.11-31.11a2 2 0 0 1 0-2.83l31.11-31.11a2 2 0 0 1 2.83 0l31.11 31.11a2 2 0 0 1 0 2.83L63.53 199.3a2 2 0 0 1-1.42.59zm-28.28-33.12l28.28 28.29 28.29-28.29-28.29-28.28z"/><path class="cls-3" d="M93.93 136.37l-31.11 31.11-21.21-21.21v-19.8l21.21-21.21 31.11 31.11z"/><path class="cls-2" d="M62.82 169.48a2 2 0 0 1-1.41-.59l-21.22-21.21a2 2 0 0 1-.59-1.41v-19.8a2 2 0 0 1 .59-1.41l21.21-21.21a2.06 2.06 0 0 1 2.83 0L95.35 135a2 2 0 0 1 0 2.83L64.23 168.9a2 2 0 0 1-1.41.58zm-19.21-24l19.21 19.21 28.28-28.32-28.28-28.29-19.21 19.22z"/><path class="cls-1" d="M41.61 146.27l9.9-9.9-9.9-9.9v19.8z"/><path class="cls-2" d="M41.61 148.27a2 2 0 0 1-2-2v-19.8a2 2 0 0 1 3.39-1.41l9.9 9.9a2 2 0 0 1 0 2.83l-9.9 9.9a2 2 0 0 1-1.39.58zm2-17v10.14l5.07-5.07zM44.43 167.476l9.193-9.192 2.83 2.828-9.194 9.192a2 2 0 0 1-2.83 0 2 2 0 0 1 0-2.828zM52.206 175.277l9.193-9.192 2.827 2.828-9.192 9.193a2 2 0 0 1-2.83 0 2 2 0 0 1 0-2.83z"/><rect class="cls-2" x="54.47" y="172.13" width="30" height="4" rx="2" ry="2" transform="rotate(-45 69.466 174.126)"/><rect class="cls-2" x="57.31" y="142.85" width="28" height="4" rx="2" ry="2" transform="rotate(-45 71.31 144.852)"/><rect class="cls-2" x="49.53" y="135.08" width="28" height="4" rx="2" ry="2" transform="rotate(-45 63.53 137.076)"/><path class="cls-2" d="M48.396 133.823l14.425-14.425a2 2 0 0 1 2.83 0 2 2 0 0 1 0 2.828L51.225 136.65l-2.83-2.827z"/></g><g id="Plan"><path class="cls-2" d="M119 63a2 2 0 0 1-2-2V43a2 2 0 0 1 4 0v18a2 2 0 0 1-2 2z"/><path class="cls-2" d="M119 63a2 2 0 0 1-1.41-.59l-6-6a2 2 0 0 1 2.83-2.83l4.58 4.59 4.59-4.59a2 2 0 0 1 2.83 2.83l-6 6A2 2 0 0 1 119 63zM149 109a2 2 0 0 1-2-2V80a2 2 0 0 1 4 0v27a2 2 0 0 1-2 2z"/><path class="cls-2" d="M149 109a2 2 0 0 1-1.41-.59l-6-6a2 2 0 0 1 2.83-2.83l4.59 4.59 4.59-4.59a2 2 0 0 1 2.83 2.83l-6 6a2 2 0 0 1-1.43.59zM180 65a2 2 0 0 1-2-2V45a2 2 0 0 1 4 0v18a2 2 0 0 1-2 2z"/><path class="cls-2" d="M186 53a2 2 0 0 1-1.41-.59L180 47.83l-4.59 4.59a2 2 0 0 1-2.83-2.83l6-6a2 2 0 0 1 2.83 0l6 6A2 2 0 0 1 186 53zM149 63a2 2 0 0 1-2-2V34a2 2 0 0 1 2-2h18a2 2 0 0 1 0 4h-16v25a2 2 0 0 1-2 2z"/><path class="cls-2" d="M149 63a2 2 0 0 1-1.41-.59l-6-6a2 2 0 0 1 2.83-2.83l4.58 4.59 4.59-4.59a2 2 0 0 1 2.83 2.83l-6 6A2 2 0 0 1 149 63zM187 91a2 2 0 0 1-1.41-.59L181 85.83l-4.59 4.59a2 2 0 0 1-2.83-2.83l6-6a2 2 0 0 1 2.83 0l6 6A2 2 0 0 1 187 91z"/><path class="cls-2" d="M181 98h-62a2 2 0 0 1-2-2V81a2 2 0 0 1 4 0v13h58V83a2 2 0 0 1 4 0v13a2 2 0 0 1-2 2zM129 44h-20a2 2 0 0 1-2-2V28a2 2 0 0 1 2-2h20a2 2 0 0 1 2 2v14a2 2 0 0 1-2 2zm-18-4h16V30h-16zM189 44h-20a2 2 0 0 1-2-2V28a2 2 0 0 1 2-2h20a2 2 0 0 1 2 2v14a2 2 0 0 1-2 2zm-18-4h16V30h-16z"/><path class="cls-2" d="M129 81h-20a2 2 0 0 1-2-2V65a2 2 0 0 1 2-2h20a2 2 0 0 1 2 2v14a2 2 0 0 1-2 2zm-18-4h16V67h-16zM159 81h-20a2 2 0 0 1-2-2V65a2 2 0 0 1 2-2h20a2 2 0 0 1 2 2v14a2 2 0 0 1-2 2zm-18-4h16V67h-16zM189 81h-20a2 2 0 0 1-2-2V65a2 2 0 0 1 2-2h20a2 2 0 0 1 2 2v14a2 2 0 0 1-2 2zm-18-4h16V67h-16zM149 130a11 11 0 1 1 11-11 11 11 0 0 1-11 11zm0-18a7 7 0 1 0 7 7 7 7 0 0 0-7-7z"/><path class="cls-2" d="M149.3 124a2 2 0 0 1-1.41-.59l-6.3-6.3a2 2 0 0 1 2.83-2.83l4.67 4.67 9.12-12.16a2 2 0 1 1 3.2 2.4l-10.5 14a2 2 0 0 1-1.46.79z"/></g><g id="Pen"><path class="cls-1" d="M146.16 144.674l-8.486 8.485-31.113-31.113 8.487-8.486z"/><path class="cls-2" d="M137.67 155.16a2 2 0 0 1-1.41-.59l-31.11-31.11a2 2 0 0 1 0-2.83l8.49-8.49a2 2 0 0 1 2.83 0l31.11 31.11a2 2 0 0 1 0 2.83l-8.49 8.49a2 2 0 0 1-1.42.59zM109.39 122l28.28 28.28 5.66-5.66L115 116.39z"/><path class="cls-2" d="M107.27 122.75l8.49-8.49-4.95-4.95a1 1 0 0 0-1.41 0l-7.07 7.07a1 1 0 0 0 0 1.41z"/><path class="cls-1" d="M190 184.27L177.27 197 137 156.7a2 2 0 0 1 0-2.83l9.9-9.9a2 2 0 0 1 2.83 0z"/><path class="cls-2" d="M177.27 199a2 2 0 0 1-1.41-.59l-40.31-40.3a4 4 0 0 1 0-5.66l9.9-9.9a4 4 0 0 1 5.66 0l40.31 40.31a2 2 0 0 1 0 2.83l-12.73 12.73a2 2 0 0 1-1.42.58zm-29-53.62l-9.9 9.9 38.89 38.89 9.9-9.9z"/><path class="cls-3" d="M98.82 112.61a8 8 0 0 1-2.05-2.38l-4.86-8.6a2 2 0 0 1 2.73-2.73l8.6 4.86a8 8 0 0 1 2.38 2.05l4 5.1-5.66 5.66z"/><path class="cls-2" d="M103.92 118.58a2 2 0 0 1-1.23-.42l-5.1-4a10 10 0 0 1-2.57-3l-4.86-8.6a4 4 0 0 1 5.45-5.45l8.6 4.86a10 10 0 0 1 3 2.57l4 5.1a2 2 0 0 1-.17 2.64l-5.71 5.72a2 2 0 0 1-1.41.58zM100 111l3.71 2.88 3.16-3.16L104 107a6 6 0 0 0-1.78-1.54l-8.6-4.86 4.86 8.6A6 6 0 0 0 100 111zM147.57 175.79a2 2 0 0 0 0 2.83l19.8 19.8a2 2 0 0 0 2.83 0l3.54-3.54-2.83-2.83-2.12 2.12-18.39-18.38a2 2 0 0 0-2.83 0zM170.91 175.67a2 2 0 0 1-1.41-.59l-21.21-21.21-3.54 3.54a2 2 0 0 1-2.83-2.83l4.95-5a2.06 2.06 0 0 1 2.83 0l22.63 22.63a2 2 0 0 1-1.41 3.41z"/></g></svg>
