<svg id="Final_-_New" data-name="Final - New" xmlns="http://www.w3.org/2000/svg" viewBox="0 0 200 200"><defs><style>.cls-1{fill:#0c6;}.cls-2{fill:#202124;}.cls-3{fill:#aeeaac;}</style></defs><title>Design</title><g id="Paper-2"><path class="cls-1" d="M2.178 44.533l99.62-8.716 12.2 139.468L14.38 184z"/><path class="cls-2" d="M14.38 186a2 2 0 0 1-2-1.83L.19 44.71A2 2 0 0 1 2 42.54l99.62-8.72a2 2 0 0 1 2.17 1.82L116 175.11a2 2 0 0 1-1.82 2.17L14.55 186zM4.35 46.35L16.2 181.83l95.63-8.37L100 38z"/></g><g id="Paper-1"><path class="cls-3" d="M10 34h100v140H10z"/><path class="cls-2" d="M110 176H10a2 2 0 0 1-2-2V34a2 2 0 0 1 2-2h100a2 2 0 0 1 2 2v140a2 2 0 0 1-2 2zm-98-4h96V36H12z"/></g><g id="Palette"><rect class="cls-1" x="126" y="121" width="72" height="19" rx="6" ry="6"/><path class="cls-2" d="M192 142h-60a8 8 0 0 1-8-8v-7a8 8 0 0 1 8-8h60a8 8 0 0 1 8 8v7a8 8 0 0 1-8 8zm-60-19a4 4 0 0 0-4 4v7a4 4 0 0 0 4 4h60a4 4 0 0 0 4-4v-7a4 4 0 0 0-4-4z"/><rect class="cls-3" x="126" y="33" width="72" height="100" rx="6" ry="6"/><path class="cls-2" d="M192 135h-60a8 8 0 0 1-8-8V39a8 8 0 0 1 8-8h60a8 8 0 0 1 8 8v88a8 8 0 0 1-8 8zM132 35a4 4 0 0 0-4 4v88a4 4 0 0 0 4 4h60a4 4 0 0 0 4-4V39a4 4 0 0 0-4-4z"/><rect class="cls-3" x="133" y="42" width="16" height="65" rx="2" ry="2"/><path class="cls-2" d="M147 109h-12a4 4 0 0 1-4-4V44a4 4 0 0 1 4-4h12a4 4 0 0 1 4 4v61a4 4 0 0 1-4 4zm-12-65v61h12V44z"/><rect class="cls-3" x="156" y="42" width="35" height="36" rx="6" ry="6"/><path class="cls-2" d="M185 80h-23a8 8 0 0 1-8-8V48a8 8 0 0 1 8-8h23a8 8 0 0 1 8 8v24a8 8 0 0 1-8 8zm-23-36a4 4 0 0 0-4 4v24a4 4 0 0 0 4 4h23a4 4 0 0 0 4-4V48a4 4 0 0 0-4-4z"/><rect class="cls-3" x="156" y="84" width="14" height="22" rx="6" ry="6"/><path class="cls-2" d="M164 108h-2a8 8 0 0 1-8-8V90a8 8 0 0 1 8-8h2a8 8 0 0 1 8 8v10a8 8 0 0 1-8 8zm-2-22a4 4 0 0 0-4 4v10a4 4 0 0 0 4 4h2a4 4 0 0 0 4-4V90a4 4 0 0 0-4-4z"/><rect class="cls-3" x="177" y="84" width="14" height="22" rx="6" ry="6"/><path class="cls-2" d="M185 108h-2a8 8 0 0 1-8-8V90a8 8 0 0 1 8-8h2a8 8 0 0 1 8 8v10a8 8 0 0 1-8 8zm-2-22a4 4 0 0 0-4 4v10a4 4 0 0 0 4 4h2a4 4 0 0 0 4-4V90a4 4 0 0 0-4-4zM132 56h18v4h-18zM132 72h18v4h-18zM132 88h18v4h-18z"/><circle class="cls-3" cx="185" cy="120" r="6"/><path class="cls-2" d="M185 128a8 8 0 1 1 8-8 8 8 0 0 1-8 8zm0-12a4 4 0 1 0 4 4 4 4 0 0 0-4-4z"/><circle class="cls-1" cx="141" cy="50" r="4"/><circle class="cls-2" cx="141" cy="66" r="4"/><circle class="cls-1" cx="171.74" cy="58.12" r="9.81"/><circle class="cls-1" cx="180.79" cy="63.41" r="5.28"/><circle class="cls-1" cx="141" cy="82" r="4"/><circle class="cls-2" cx="141" cy="98" r="4"/></g><g id="Brush"><rect class="cls-1" x="2" y="6" width="116" height="18" rx="2" ry="2"/><path class="cls-2" d="M116 26H4a4 4 0 0 1-4-4V8a4 4 0 0 1 4-4h112a4 4 0 0 1 4 4v14a4 4 0 0 1-4 4zM4 8v14h112V8z"/><g id="Ruler"><rect class="cls-3" x="2" y="2" width="116" height="15" rx="2" ry="2"/><path class="cls-2" d="M116 19H4a4 4 0 0 1-4-4V4a4 4 0 0 1 4-4h112a4 4 0 0 1 4 4v11a4 4 0 0 1-4 4zM4 4v11h112V4z"/></g><path class="cls-2" d="M58 2h4v8a2 2 0 0 1-2 2 2 2 0 0 1-2-2V2zM106 2h4v8a2 2 0 0 1-2 2 2 2 0 0 1-2-2V2zM10 2h4v8a2 2 0 0 1-2 2 2 2 0 0 1-2-2V2zM46 2h4v6a2 2 0 0 1-2 2 2 2 0 0 1-2-2V2zM34 2h4v6a2 2 0 0 1-2 2 2 2 0 0 1-2-2V2zM22 2h4v6a2 2 0 0 1-2 2 2 2 0 0 1-2-2V2zM94 2h4v6a2 2 0 0 1-2 2 2 2 0 0 1-2-2V2zM82 2h4v6a2 2 0 0 1-2 2 2 2 0 0 1-2-2V2zM70 2h4v6a2 2 0 0 1-2 2 2 2 0 0 1-2-2V2z"/></g><path class="cls-3" d="M145 8h53v10h-53z"/><path class="cls-2" d="M198 20h-53a2 2 0 0 1-2-2V8a2 2 0 0 1 2-2h53a2 2 0 0 1 2 2v10a2 2 0 0 1-2 2zm-51-4h49v-6h-49z"/><path class="cls-3" d="M145 11v4s-2.58 3-9 3-11-5-11-5 7.92-6 13-6a7.79 7.79 0 0 1 7 4z"/><path class="cls-2" d="M136 20c-7.21 0-12.26-5.42-12.47-5.65a2 2 0 0 1 .27-2.95c.86-.65 8.61-6.4 14.2-6.4a9.78 9.78 0 0 1 8.8 5.14 2 2 0 0 1 .2.86v4a2 2 0 0 1-.48 1.3c-.33.38-3.39 3.7-10.52 3.7zm-7.75-6.83A13.4 13.4 0 0 0 136 16a11.72 11.72 0 0 0 7-1.9v-2.56A5.87 5.87 0 0 0 138 9c-2.76 0-7 2.36-9.75 4.17z"/><path class="cls-2" d="M137.67 17.92A9.38 9.38 0 0 0 139 13a13.19 13.19 0 0 0-1.3-6c-5.09.22-12.7 6-12.7 6s4.58 5 11 5c.59 0 1.14 0 1.67-.08z"/><g id="Notes"><path class="cls-1" d="M154 154h44v44h-44z"/><path class="cls-2" d="M198 200h-44a2 2 0 0 1-2-2v-44a2 2 0 0 1 2-2h44a2 2 0 0 1 2 2v44a2 2 0 0 1-2 2zm-42-4h40v-40h-40z"/><path class="cls-3" d="M148 191h44v-30l-14-14h-30v44z"/><path class="cls-2" d="M192 193h-44a2 2 0 0 1-2-2v-44a2 2 0 0 1 2-2h30a2 2 0 0 1 1.41.59l14 14A2 2 0 0 1 194 161v30a2 2 0 0 1-2 2zm-42-4h40v-27.17L177.17 149H150z"/><path class="cls-1" d="M192 161h-14v-14l14 14z"/><path class="cls-2" d="M192 163h-14a2 2 0 0 1-2-2v-14a2 2 0 0 1 3.41-1.41l14 14A2 2 0 0 1 192 163zm-12-4h7.17l-7.17-7.17z"/></g><g id="Eraser"><path class="cls-1" d="M156 140v23h-18v-23a9 9 0 0 1 9-9 9 9 0 0 1 9 9z"/><path class="cls-2" d="M156 165h-18a2 2 0 0 1-2-2v-23a11 11 0 0 1 22 0v23a2 2 0 0 1-2 2zm-16-4h14v-21a7 7 0 0 0-14 0z"/><path class="cls-3" d="M156 134v23h-18v-23a9 9 0 0 1 9-9 9 9 0 0 1 9 9z"/><path class="cls-2" d="M156 159h-18a2 2 0 0 1-2-2v-23a11 11 0 0 1 22 0v23a2 2 0 0 1-2 2zm-16-4h14v-21a7 7 0 0 0-14 0z"/><path class="cls-2" d="M154 139h-14a2 2 0 0 1 0-4h14a2 2 0 0 1 0 4z"/><path class="cls-2" d="M150 159a2 2 0 0 1-2-2v-20a2 2 0 0 1 4 0v20a2 2 0 0 1-2 2z"/></g><g id="Wireframe"><rect class="cls-2" x="18" y="43" width="17" height="8" rx="2" ry="2"/><rect class="cls-2" x="38" y="43" width="64" height="8" rx="2" ry="2"/><path class="cls-2" d="M98 59v22H22V59h76m2-4H20a2 2 0 0 0-2 2v26a2 2 0 0 0 2 2h80a2 2 0 0 0 2-2V57a2 2 0 0 0-2-2zM42 93v20H22V93h20m2-4H20a2 2 0 0 0-2 2v24a2 2 0 0 0 2 2h24a2 2 0 0 0 2-2V91a2 2 0 0 0-2-2zM98 93v20H54V93h44m2-4H52a2 2 0 0 0-2 2v24a2 2 0 0 0 2 2h48a2 2 0 0 0 2-2V91a2 2 0 0 0-2-2z"/><rect class="cls-2" x="18" y="121" width="28" height="8" rx="2" ry="2"/><path class="cls-2" d="M98 125v36H54v-36h44m2-4H52a2 2 0 0 0-2 2v40a2 2 0 0 0 2 2h48a2 2 0 0 0 2-2v-40a2 2 0 0 0-2-2zM42 137v24H22v-24h20m2-4H20a2 2 0 0 0-2 2v28a2 2 0 0 0 2 2h24a2 2 0 0 0 2-2v-28a2 2 0 0 0-2-2zM98 83a2 2 0 0 1-.56-.08l-76-22a2 2 0 0 1 1.11-3.84l76 22A2 2 0 0 1 98 83z"/><path class="cls-2" d="M22 83a2 2 0 0 1-.56-3.92l76-22a2 2 0 0 1 1.11 3.84l-76 22A2 2 0 0 1 22 83zM42 115a2 2 0 0 1-1.41-.59l-20-20a2 2 0 0 1 2.83-2.83l20 20A2 2 0 0 1 42 115z"/><path class="cls-2" d="M22 115a2 2 0 0 1-1.41-3.41l20-20a2 2 0 0 1 2.83 2.83l-20 20A2 2 0 0 1 22 115z"/></g><g id="Pencil"><path class="cls-3" d="M86.76 138.686l51.825 51.823-7.07 7.07-51.825-51.823z"/><path class="cls-2" d="M131.52 199.59a2 2 0 0 1-1.41-.59l-51.83-51.82a2 2 0 0 1 0-2.83l7.07-7.07a2 2 0 0 1 2.83 0L140 189.1a2 2 0 0 1 0 2.83l-7.07 7.07a2 2 0 0 1-1.41.59zm-49-53.83l49 49 4.24-4.24-49-49z"/><path class="cls-3" d="M129.427 177.053l5.657 5.657-11.363 11.363-5.656-5.657z"/><path class="cls-2" d="M123.72 196.08a2 2 0 0 1-1.41-.59l-5.66-5.66a2 2 0 0 1 0-2.83L128 175.65a2 2 0 0 1 2.83 0l5.66 5.66a2 2 0 0 1 0 2.83l-11.36 11.36a2 2 0 0 1-1.41.58zm-2.83-7.66l2.83 2.83 8.53-8.53-2.83-2.83z"/><path class="cls-3" d="M86.97 138.9l-1.41-1.41-10.02-4.13-1.3 1.3 4.24 9.9 1.42 1.41 7.07-7.07z"/><path class="cls-2" d="M79.9 148a2 2 0 0 1-1.41-.59L77.07 146a2 2 0 0 1-.42-.63l-4.24-9.9a2 2 0 0 1 .42-2.2l1.3-1.3a2 2 0 0 1 2.18-.44l10 4.13a2 2 0 0 1 .65.44l1.41 1.41a2 2 0 0 1 0 2.83l-7.07 7.07a2 2 0 0 1-1.4.59zm-2.84-11.82L80 143l4-4zM133 183.42l3.54-3.54a2 2 0 0 0 0-2.83l-15.6-15.55a2 2 0 1 0-2.83 2.83l14.14 14.14-2.12 2.12zM92.415 145.76l2.828 2.83-5.657 5.655-2.828-2.828z"/><rect class="cls-2" x="67.12" y="129.12" width="10" height="4" rx="2" ry="2" transform="rotate(45 72.117 131.122)"/></g></svg>
